<svg width="141" height="40" viewBox="0 0 141 40" fill="none" xmlns="http://www.w3.org/2000/svg">
<g id="logo">
<path id="Shape" fill-rule="evenodd" clip-rule="evenodd" d="M132.38 27.5526V31.6323H124.198V5.6225C124.194 2.75594 121.931 0.402072 119.067 0.285696H110.587V9.14228H113.673V31.3923H103.011V0.182846H93.1941V23.6099H93.137C92.0742 22.0672 78.2808 4.73113 78.2808 4.73113C75.8581 1.65704 74.0753 0.15999 71.1269 0.15999H56.5793C55.2372 0.051933 53.9045 0.460733 52.8538 1.30278C51.9652 2.12421 51.3307 3.18309 51.0253 4.35401L48.9569 11.2107C46.8885 18.0674 45.3457 24.7642 44.3858 29.4381C44.3858 29.4381 41.6088 18.0103 39.8832 11.6907L38.1233 5.02825C37.3005 2.06844 35.5178 0 32.1465 0C28.7753 0 26.9354 2.06844 26.1126 5.02825L24.3413 11.5421C22.4443 18.5245 19.9073 29.2896 19.9073 29.2896C19.0845 24.9699 17.1303 16.8675 15.3362 11.0622L13.3249 4.20545C12.6849 2.07987 11.4278 0.148562 9.41655 0.148562H0V8.76516H4.94826L11.4278 33.0151C12.1364 35.3806 12.5706 36.9805 13.8048 38.0433C15.3372 39.3516 17.2989 40.0475 19.3131 39.9975C21.2849 40.0209 23.198 39.3263 24.6956 38.0433C26.1418 36.684 27.1688 34.9393 27.6554 33.0151C29.4352 26.9846 30.8848 20.8616 31.998 14.6734C33.1408 20.8215 34.4207 25.8612 36.432 33.0151C36.9158 34.9274 37.9206 36.668 39.3347 38.0433C42.4514 40.645 46.9829 40.645 50.0997 38.0433C51.5063 36.6622 52.5098 34.9238 53.0024 33.0151L59.6648 8.6166H65.8473V39.3804H75.6638V16.2161L90.52 35.2664C92.8056 38.2262 94.6569 39.5518 97.6738 39.5518L136.689 39.4947C137.856 39.5164 138.979 39.0479 139.785 38.203C140.59 37.3581 141.005 36.2142 140.928 35.0492V27.5526H132.38Z" fill="#FF6D00"></path>
</g>
</svg>